{
  "accessors": [
    {
      "bufferView": 2,
      "componentType": 5126,
      "count": 65532,
      "max": [
        0.04910239949822426,
        -0.03343585133552551,
        0.15222057700157166
      ],
      "min": [
        -0.03261880949139595,
        -0.1523061990737915,
        0.10029403120279312
      ],
      "type": "VEC3"
    },
    {
      "bufferView": 2,
      "byteOffset": 786384,
      "componentType": 5126,
      "count": 65532,
      "max": [
        0.9917940497398376,
        0.99428790807724,
        0.9999958872795105
      ],
      "min": [
        -0.9999954700469971,
        -0.9951637387275696,
        -0.9999998211860657
      ],
      "type": "VEC3"
    },
    {
      "bufferView": 1,
      "componentType": 5126,
      "count": 65532,
      "max": [
        0.9993685483932495,
        0.8864744901657104
      ],
      "min": [
        0.0005014660418964922,
        0.0004318548599258065
      ],
      "type": "VEC2"
    },
    {
      "bufferView": 1,
      "byteOffset": 524256,
      "componentType": 5126,
      "count": 65532,
      "max": [
        0.9993685483932495,
        0.8864744901657104
      ],
      "min": [
        0.0005014660418964922,
        0.0004318548599258065
      ],
      "type": "VEC2"
    },
    {
      "bufferView": 0,
      "componentType": 5125,
      "count": 302616,
      "type": "SCALAR"
    },
    {
      "bufferView": 2,
      "byteOffset": 1572768,
      "componentType": 5126,
      "count": 65532,
      "max": [
        0.03511761873960495,
        -0.04792952165007591,
        0.14344479143619537
      ],
      "min": [
        -0.03221699222922325,
        -0.1304621398448944,
        0.10040062665939331
      ],
      "type": "VEC3"
    },
    {
      "bufferView": 2,
      "byteOffset": 2359152,
      "componentType": 5126,
      "count": 65532,
      "max": [
        0.9976292252540588,
        0.9996740818023682,
        0.9922930002212524
      ],
      "min": [
        -0.9999645948410034,
        -0.9654059410095215,
        -0.9999977350234985
      ],
      "type": "VEC3"
    },
    {
      "bufferView": 1,
      "byteOffset": 1048512,
      "componentType": 5126,
      "count": 65532,
      "max": [
        0.9996681213378906,
        0.9226073026657104
      ],
      "min": [
        0.0017039491795003414,
        0.00025244487915188074
      ],
      "type": "VEC2"
    },
    {
      "bufferView": 1,
      "byteOffset": 1572768,
      "componentType": 5126,
      "count": 65532,
      "max": [
        0.9996681213378906,
        0.9226073026657104
      ],
      "min": [
        0.0017039491795003414,
        0.00025244487915188074
      ],
      "type": "VEC2"
    },
    {
      "bufferView": 0,
      "byteOffset": 1210464,
      "componentType": 5125,
      "count": 286761,
      "type": "SCALAR"
    },
    {
      "bufferView": 2,
      "byteOffset": 3145536,
      "componentType": 5126,
      "count": 65532,
      "max": [
        0.03249838948249817,
        -0.0468057245016098,
        0.14352980256080627
      ],
      "min": [
        -0.02397121861577034,
        -0.1349150389432907,
        0.1004657968878746
      ],
      "type": "VEC3"
    },
    {
      "bufferView": 2,
      "byteOffset": 3931920,
      "componentType": 5126,
      "count": 65532,
      "max": [
        0.9999178051948547,
        0.9999662637710571,
        0.9469373822212219
      ],
      "min": [
        -0.999996542930603,
        -0.9997720122337341,
        -0.999999463558197
      ],
      "type": "VEC3"
    },
    {
      "bufferView": 1,
      "byteOffset": 2097024,
      "componentType": 5126,
      "count": 65532,
      "max": [
        0.9997459053993225,
        0.8984977006912231
      ],
      "min": [
        0.000244140625,
        0.00024404062423855066
      ],
      "type": "VEC2"
    },
    {
      "bufferView": 1,
      "byteOffset": 2621280,
      "componentType": 5126,
      "count": 65532,
      "max": [
        0.9997459053993225,
        0.8984977006912231
      ],
      "min": [
        0.000244140625,
        0.00024404062423855066
      ],
      "type": "VEC2"
    },
    {
      "bufferView": 0,
      "byteOffset": 2357508,
      "componentType": 5125,
      "count": 252930,
      "type": "SCALAR"
    },
    {
      "bufferView": 2,
      "byteOffset": 4718304,
      "componentType": 5126,
      "count": 65532,
      "max": [
        0.04979553818702698,
        -0.04967443272471428,
        0.15186333656311035
      ],
      "min": [
        -0.03201572597026825,
        -0.1742296665906906,
        0.10031623393297195
      ],
      "type": "VEC3"
    },
    {
      "bufferView": 2,
      "byteOffset": 5504688,
      "componentType": 5126,
      "count": 65532,
      "max": [
        0.9682695865631104,
        0.9992226958274841,
        0.9039425849914551
      ],
      "min": [
        -0.999994695186615,
        -0.999943733215332,
        -0.9999955892562866
      ],
      "type": "VEC3"
    },
    {
      "bufferView": 1,
      "byteOffset": 3145536,
      "componentType": 5126,
      "count": 65532,
      "max": [
        0.9997287392616272,
        0.8781648278236389
      ],
      "min": [
        0.000244140625,
        0.0002584649482741952
      ],
      "type": "VEC2"
    },
    {
      "bufferView": 1,
      "byteOffset": 3669792,
      "componentType": 5126,
      "count": 65532,
      "max": [
        0.9997287392616272,
        0.8781648278236389
      ],
      "min": [
        0.000244140625,
        0.0002584649482741952
      ],
      "type": "VEC2"
    },
    {
      "bufferView": 0,
      "byteOffset": 3369228,
      "componentType": 5125,
      "count": 223788,
      "type": "SCALAR"
    },
    {
      "bufferView": 2,
      "byteOffset": 6291072,
      "componentType": 5126,
      "count": 65532,
      "max": [
        0.04929398000240326,
        -0.03376137465238571,
        0.15211771428585052
      ],
      "min": [
        -0.03261880949139595,
        -0.17486689984798431,
        0.10650957375764847
      ],
      "type": "VEC3"
    },
    {
      "bufferView": 2,
      "byteOffset": 7077456,
      "componentType": 5126,
      "count": 65532,
      "max": [
        0.9999930262565613,
        0.9831491708755493,
        0.7731612324714661
      ],
      "min": [
        -0.9999989867210388,
        -0.9997780323028564,
        -0.9999974370002747
      ],
      "type": "VEC3"
    },
    {
      "bufferView": 1,
      "byteOffset": 4194048,
      "componentType": 5126,
      "count": 65532,
      "max": [
        0.9997486472129822,
        0.9938963651657104
      ],
      "min": [
        0.000244140625,
        0.00024791492614895105
      ],
      "type": "VEC2"
    },
    {
      "bufferView": 1,
      "byteOffset": 4718304,
      "componentType": 5126,
      "count": 65532,
      "max": [
        0.9997486472129822,
        0.9938963651657104
      ],
      "min": [
        0.000244140625,
        0.00024791492614895105
      ],
      "type": "VEC2"
    },
    {
      "bufferView": 0,
      "byteOffset": 4264380,
      "componentType": 5125,
      "count": 298677,
      "type": "SCALAR"
    },
    {
      "bufferView": 2,
      "byteOffset": 7863840,
      "componentType": 5126,
      "count": 65532,
      "max": [
        0.04979553818702698,
        -0.033400408923625946,
        0.15222057700157166
      ],
      "min": [
        -0.032648902386426926,
        -0.1742296665906906,
        0.10435672104358673
      ],
      "type": "VEC3"
    },
    {
      "bufferView": 2,
      "byteOffset": 8650224,
      "componentType": 5126,
      "count": 65532,
      "max": [
        0.9999990463256836,
        0.9999998807907104,
        0.9975536465644836
      ],
      "min": [
        -0.9996821284294128,
        -0.9999297857284546,
        -1.0
      ],
      "type": "VEC3"
    },
    {
      "bufferView": 1,
      "byteOffset": 5242560,
      "componentType": 5126,
      "count": 65532,
      "max": [
        0.9996172189712524,
        0.9968260526657104
      ],
      "min": [
        0.0022974407766014338,
        0.00026645197067409754
      ],
      "type": "VEC2"
    },
    {
      "bufferView": 1,
      "byteOffset": 5766816,
      "componentType": 5126,
      "count": 65532,
      "max": [
        0.9996172189712524,
        0.9968260526657104
      ],
      "min": [
        0.0022974407766014338,
        0.00026645197067409754
      ],
      "type": "VEC2"
    },
    {
      "bufferView": 0,
      "byteOffset": 5459088,
      "componentType": 5125,
      "count": 279732,
      "type": "SCALAR"
    },
    {
      "bufferView": 2,
      "byteOffset": 9436608,
      "componentType": 5126,
      "count": 65532,
      "max": [
        0.04880905896425247,
        -0.033417340368032455,
        0.14660637080669403
      ],
      "min": [
        -0.032648902386426926,
        -0.1736365258693695,
        0.11622295528650284
      ],
      "type": "VEC3"
    },
    {
      "bufferView": 2,
      "byteOffset": 10222992,
      "componentType": 5126,
      "count": 65532,
      "max": [
        0.9999328255653381,
        0.999995768070221,
        0.9577385783195496
      ],
      "min": [
        -0.9999868273735046,
        -0.9999380111694336,
        -0.9999998211860657
      ],
      "type": "VEC3"
    },
    {
      "bufferView": 1,
      "byteOffset": 6291072,
      "componentType": 5126,
      "count": 65532,
      "max": [
        0.9997559189796448,
        0.9968260526657104
      ],
      "min": [
        0.000244140625,
        0.0002443386474624276
      ],
      "type": "VEC2"
    },
    {
      "bufferView": 1,
      "byteOffset": 6815328,
      "componentType": 5126,
      "count": 65532,
      "max": [
        0.9997559189796448,
        0.9968260526657104
      ],
      "min": [
        0.000244140625,
        0.0002443386474624276
      ],
      "type": "VEC2"
    },
    {
      "bufferView": 0,
      "byteOffset": 6578016,
      "componentType": 5125,
      "count": 252204,
      "type": "SCALAR"
    },
    {
      "bufferView": 2,
      "byteOffset": 11009376,
      "componentType": 5126,
      "count": 65532,
      "max": [
        0.047065965831279755,
        -0.051156096160411835,
        0.15175741910934448
      ],
      "min": [
        -0.03220171853899956,
        -0.17483606934547424,
        0.10400735586881638
      ],
      "type": "VEC3"
    },
    {
      "bufferView": 2,
      "byteOffset": 11795760,
      "componentType": 5126,
      "count": 65532,
      "max": [
        0.9999940991401672,
        0.9999818205833435,
        0.999660313129425
      ],
      "min": [
        -0.9999876618385315,
        -0.999959409236908,
        -0.9999955892562866
      ],
      "type": "VEC3"
    },
    {
      "bufferView": 1,
      "byteOffset": 7339584,
      "componentType": 5126,
      "count": 65532,
      "max": [
        0.9997555017471313,
        0.8825682401657104
      ],
      "min": [
        0.000244140625,
        0.00024672283325344324
      ],
      "type": "VEC2"
    },
    {
      "bufferView": 1,
      "byteOffset": 7863840,
      "componentType": 5126,
      "count": 65532,
      "max": [
        0.9997555017471313,
        0.8825682401657104
      ],
      "min": [
        0.000244140625,
        0.00024672283325344324
      ],
      "type": "VEC2"
    },
    {
      "bufferView": 0,
      "byteOffset": 7586832,
      "componentType": 5125,
      "count": 250953,
      "type": "SCALAR"
    },
    {
      "bufferView": 2,
      "byteOffset": 12582144,
      "componentType": 5126,
      "count": 65473,
      "max": [
        0.04903850704431534,
        -0.05015783756971359,
        0.144313782453537
      ],
      "min": [
        -0.023981120437383652,
        -0.12230681627988815,
        0.10080476105213165
      ],
      "type": "VEC3"
    },
    {
      "bufferView": 2,
      "byteOffset": 13367820,
      "componentType": 5126,
      "count": 65473,
      "max": [
        0.9999964833259583,
        0.9993470907211304,
        0.9944508671760559
      ],
      "min": [
        -0.9999227523803711,
        -0.9941070079803467,
        -0.9999998807907104
      ],
      "type": "VEC3"
    },
    {
      "bufferView": 1,
      "byteOffset": 8388096,
      "componentType": 5126,
      "count": 65473,
      "max": [
        0.9996756315231323,
        0.9323729276657104
      ],
      "min": [
        0.000244140625,
        0.00024594797287136316
      ],
      "type": "VEC2"
    },
    {
      "bufferView": 1,
      "byteOffset": 8911880,
      "componentType": 5126,
      "count": 65473,
      "max": [
        0.9996756315231323,
        0.9323729276657104
      ],
      "min": [
        0.000244140625,
        0.00024594797287136316
      ],
      "type": "VEC2"
    },
    {
      "bufferView": 0,
      "byteOffset": 8590644,
      "componentType": 5125,
      "count": 246219,
      "type": "SCALAR"
    }
  ],
  "asset": {
    "extras": {
      "author": "SIUWAI (https://sketchfab.com/siuwai)",
      "license": "CC-BY-4.0 (http://creativecommons.org/licenses/by/4.0/)",
      "source": "https://sketchfab.com/3d-models/logitech-g-g502-lightspeed-realityscan-985593638e4c4012ae898930eaeae6ca",
      "title": "Logitech G G502 Lightspeed RealityScan"
    },
    "generator": "Sketchfab-14.53.0",
    "version": "2.0"
  },
  "bufferViews": [
    {
      "buffer": 0,
      "byteLength": 9575520,
      "name": "floatBufferViews",
      "target": 34963
    },
    {
      "buffer": 0,
      "byteLength": 9435664,
      "byteOffset": 9575520,
      "byteStride": 8,
      "name": "floatBufferViews",
      "target": 34962
    },
    {
      "buffer": 0,
      "byteLength": 14153496,
      "byteOffset": 19011184,
      "byteStride": 12,
      "name": "floatBufferViews",
      "target": 34962
    }
  ],
  "buffers": [
    {
      "byteLength": 33164680,
      "uri": "scene.bin"
    }
  ],
  "extensionsUsed": [
    "KHR_materials_unlit"
  ],
  "images": [
    {
      "uri": "textures/tex_u1_v1_baseColor.jpeg"
    }
  ],
  "materials": [
    {
      "doubleSided": true,
      "extensions": {
        "KHR_materials_unlit": {}
      },
      "name": "tex_u1_v1",
      "pbrMetallicRoughness": {
        "baseColorTexture": {
          "index": 0
        },
        "metallicFactor": 0.0
      }
    }
  ],
  "meshes": [
    {
      "name": "model_tex_u1_v1_0",
      "primitives": [
        {
          "attributes": {
            "NORMAL": 1,
            "POSITION": 0,
            "TEXCOORD_0": 2,
            "TEXCOORD_1": 3
          },
          "indices": 4,
          "material": 0,
          "mode": 4
        }
      ]
    },
    {
      "name": "model_tex_u1_v1_0",
      "primitives": [
        {
          "attributes": {
            "NORMAL": 6,
            "POSITION": 5,
            "TEXCOORD_0": 7,
            "TEXCOORD_1": 8
          },
          "indices": 9,
          "material": 0,
          "mode": 4
        }
      ]
    },
    {
      "name": "model_tex_u1_v1_0",
      "primitives": [
        {
          "attributes": {
            "NORMAL": 11,
            "POSITION": 10,
            "TEXCOORD_0": 12,
            "TEXCOORD_1": 13
          },
          "indices": 14,
          "material": 0,
          "mode": 4
        }
      ]
    },
    {
      "name": "model_tex_u1_v1_0",
      "primitives": [
        {
          "attributes": {
            "NORMAL": 16,
            "POSITION": 15,
            "TEXCOORD_0": 17,
            "TEXCOORD_1": 18
          },
          "indices": 19,
          "material": 0,
          "mode": 4
        }
      ]
    },
    {
      "name": "model_tex_u1_v1_0",
      "primitives": [
        {
          "attributes": {
            "NORMAL": 21,
            "POSITION": 20,
            "TEXCOORD_0": 22,
            "TEXCOORD_1": 23
          },
          "indices": 24,
          "material": 0,
          "mode": 4
        }
      ]
    },
    {
      "name": "model_tex_u1_v1_0",
      "primitives": [
        {
          "attributes": {
            "NORMAL": 26,
            "POSITION": 25,
            "TEXCOORD_0": 27,
            "TEXCOORD_1": 28
          },
          "indices": 29,
          "material": 0,
          "mode": 4
        }
      ]
    },
    {
      "name": "model_tex_u1_v1_0",
      "primitives": [
        {
          "attributes": {
            "NORMAL": 31,
            "POSITION": 30,
            "TEXCOORD_0": 32,
            "TEXCOORD_1": 33
          },
          "indices": 34,
          "material": 0,
          "mode": 4
        }
      ]
    },
    {
      "name": "model_tex_u1_v1_0",
      "primitives": [
        {
          "attributes": {
            "NORMAL": 36,
            "POSITION": 35,
            "TEXCOORD_0": 37,
            "TEXCOORD_1": 38
          },
          "indices": 39,
          "material": 0,
          "mode": 4
        }
      ]
    },
    {
      "name": "model_tex_u1_v1_0",
      "primitives": [
        {
          "attributes": {
            "NORMAL": 41,
            "POSITION": 40,
            "TEXCOORD_0": 42,
            "TEXCOORD_1": 43
          },
          "indices": 44,
          "material": 0,
          "mode": 4
        }
      ]
    }
  ],
  "nodes": [
    {
      "children": [
        1
      ],
      "matrix": [
        1.0,
        0.0,
        0.0,
        0.0,
        0.0,
        2.220446049250313e-16,
        -1.0,
        0.0,
        0.0,
        1.0,
        2.220446049250313e-16,
        0.0,
        0.0,
        0.0,
        0.0,
        1.0
      ],
      "name": "Sketchfab_model"
    },
    {
      "children": [
        2
      ],
      "matrix": [
        1.0,
        0.0,
        0.0,
        0.0,
        0.0,
        -1.0,
        0.0,
        0.0,
        0.0,
        0.0,
        -1.0,
        0.0,
        0.0,
        0.0,
        0.0,
        1.0
      ],
      "name": "model.fbx"
    },
    {
      "children": [
        3
      ],
      "name": "RootNode"
    },
    {
      "children": [
        4,
        5,
        6,
        7,
        8,
        9,
        10,
        11,
        12
      ],
      "name": "model"
    },
    {
      "mesh": 0,
      "name": "model_tex_u1_v1_0"
    },
    {
      "mesh": 1,
      "name": "model_tex_u1_v1_0"
    },
    {
      "mesh": 2,
      "name": "model_tex_u1_v1_0"
    },
    {
      "mesh": 3,
      "name": "model_tex_u1_v1_0"
    },
    {
      "mesh": 4,
      "name": "model_tex_u1_v1_0"
    },
    {
      "mesh": 5,
      "name": "model_tex_u1_v1_0"
    },
    {
      "mesh": 6,
      "name": "model_tex_u1_v1_0"
    },
    {
      "mesh": 7,
      "name": "model_tex_u1_v1_0"
    },
    {
      "mesh": 8,
      "name": "model_tex_u1_v1_0"
    }
  ],
  "samplers": [
    {
      "magFilter": 9729,
      "minFilter": 9987,
      "wrapS": 10497,
      "wrapT": 10497
    }
  ],
  "scene": 0,
  "scenes": [
    {
      "name": "Sketchfab_Scene",
      "nodes": [
        0
      ]
    }
  ],
  "textures": [
    {
      "sampler": 0,
      "source": 0
    }
  ]
}
